# xmcd
#
# Track frame offsets:
#	150
#	8925
#	27445
#	49850
#	74095
#	95535
#	121345
#	145560
#	169045
#	193650
#
# Disc length: 2983 seconds
#
# Revision: 1
# Processed by: cddbd v1.5.1PL0 Copyright (c) Steve Scherf et al.
# Submitted via: EasyCDDAExtractor 8.0.2.1
#
DISCID=8a0ba50a
DTITLE=Ozzy Osbourne - The Ritz Manchester 29-06-88 Disc 1
DYEAR=1988
DGENRE=Hard Rock
TTITLE0=Intro
TTITLE1=Bark At The Moon
TTITLE2=Suicide Solution
TTITLE3=Mr Crowley
TTITLE4=Demon Alcohol
TTITLE5=Shot In The Dark
TTITLE6=I Don't Know
TTITLE7=Flying High Again
TTITLE8=Bloodbath In Paradise
TTITLE9=Guitar Solo
EXTD=
EXTT0=
EXTT1=
EXTT2=
EXTT3=
EXTT4=
EXTT5=
EXTT6=
EXTT7=
EXTT8=
EXTT9=
PLAYORDER=
